<svg width="18" height="9" viewBox="0 0 18 9" fill="none" xmlns="http://www.w3.org/2000/svg">
<path fill-rule="evenodd" clip-rule="evenodd" d="M9.55777 7.86011C9.40436 7.9847 9.19641 8.05469 8.97959 8.05469C8.76277 8.05469 8.55482 7.9847 8.40141 7.86011L0.219591 1.20678C0.0750674 1.08066 -0.0036124 0.913842 0.000127469 0.741476C0.00386734 0.569109 0.089735 0.404652 0.23964 0.282751C0.389545 0.160851 0.591783 0.0910248 0.803748 0.0879836C1.01571 0.0849424 1.22085 0.148923 1.37595 0.266448L8.97959 6.4496L16.5832 0.266448C16.6581 0.201079 16.7485 0.148649 16.8488 0.112285C16.9492 0.0759205 17.0575 0.0563672 17.1674 0.054791C17.2772 0.0532148 17.3864 0.069648 17.4882 0.103111C17.5901 0.136573 17.6827 0.18638 17.7604 0.249559C17.8381 0.312738 17.8993 0.387994 17.9405 0.47084C17.9816 0.553686 18.0018 0.642422 17.9999 0.731757C17.9979 0.821091 17.9739 0.909193 17.9292 0.990807C17.8845 1.07242 17.82 1.14587 17.7396 1.20678L9.55777 7.86011Z" fill="#1E1E1E"/>
</svg>
