<svg width="18" height="18" viewBox="0 0 18 18" fill="none" xmlns="http://www.w3.org/2000/svg">
<path d="M15.0078 7.5C15.0078 12 9.00781 16.5 9.00781 16.5C9.00781 16.5 3.00781 12 3.00781 7.5C3.00781 5.9087 3.63995 4.38258 4.76517 3.25736C5.89039 2.13214 7.41651 1.5 9.00781 1.5C10.5991 1.5 12.1252 2.13214 13.2505 3.25736C14.3757 4.38258 15.0078 5.9087 15.0078 7.5Z" stroke="#303030" stroke-width="1.5" stroke-linecap="round" stroke-linejoin="round"/>
<path d="M9.00781 9.75781C10.2505 9.75781 11.2578 8.75045 11.2578 7.50781C11.2578 6.26517 10.2505 5.25781 9.00781 5.25781C7.76517 5.25781 6.75781 6.26517 6.75781 7.50781C6.75781 8.75045 7.76517 9.75781 9.00781 9.75781Z" stroke="#303030" stroke-width="1.5" stroke-linecap="round" stroke-linejoin="round"/>
</svg>
